<svg viewBox="0 0 16 16" fill="none" xmlns="http://www.w3.org/2000/svg" id="Compass--Streamline-Unicons" height="16"
  width="16">
  <desc>
    Compass Streamline Icon: https://streamlinehq.com
  </desc>
  <path
    d="M8 0.15999999999999998c-1.5505999999999998 0 -3.0664 0.4598 -4.355666666666666 1.3212666666666666 -1.2892666666666666 0.8614666666666666 -2.294133333333333 2.085933333333333 -2.887533333333333 3.518466666666667C0.1634 6.432333333333333 0.008133333333333333 8.008666666666667 0.31066666666666665 9.529466666666666s1.0492 2.917733333333333 2.1456 4.014266666666666c1.0964666666666667 1.0964 2.4934 1.8431333333333333 4.0142 2.1456666666666666 1.5208 0.30246666666666666 3.0972 0.1472 4.529733333333333 -0.4462 1.4325999999999999 -0.5933999999999999 2.6570666666666662 -1.5982666666666667 3.518533333333333 -2.887533333333333C15.380199999999999 11.066399999999998 15.84 9.5506 15.84 8c0 -1.0295333333333332 -0.2028 -2.0490666666666666 -0.5968 -3.0002666666666666 -0.3939333333333333 -0.9512 -0.9714666666666667 -1.8154666666666666 -1.6994666666666665 -2.5434666666666663 -0.728 -0.728 -1.5922666666666665 -1.3054666666666666 -2.5435333333333334 -1.6994666666666665C10.049066666666667 0.3628 9.029533333333333 0.15999999999999998 8 0.15999999999999998Zm0.7839999999999999 14.057133333333333V13.488c0 -0.20793333333333333 -0.08266666666666667 -0.4074 -0.22966666666666663 -0.5544s-0.34639999999999993 -0.22959999999999997 -0.5543333333333333 -0.22959999999999997c-0.20793333333333333 0 -0.4074 0.08259999999999999 -0.5544 0.22959999999999997s-0.22959999999999997 0.3464666666666667 -0.22959999999999997 0.5544v0.7291333333333332c-1.3798666666666666 -0.175 -2.6624 -0.8037333333333333 -3.645933333333333 -1.7872666666666666s-1.6121999999999999 -2.2660666666666662 -1.7872 -3.6458666666666666H2.5119999999999996c0.20793333333333333 0 0.4073333333333333 -0.08266666666666667 0.5544 -0.22966666666666663 0.147 -0.147 0.22959999999999997 -0.34639999999999993 0.22959999999999997 -0.5543333333333333 0 -0.20793333333333333 -0.08259999999999999 -0.4074 -0.22959999999999997 -0.5544 -0.14706666666666665 -0.147 -0.3464666666666667 -0.22959999999999997 -0.5544 -0.22959999999999997H1.7828666666666666c0.175 -1.3798666666666666 0.8036666666666666 -2.6624 1.7872 -3.645933333333333 0.9835333333333334 -0.9835333333333334 2.2660666666666662 -1.6121999999999999 3.645933333333333 -1.7872V2.5119999999999996c0 0.20793333333333333 0.08266666666666667 0.4073333333333333 0.22966666666666663 0.5544 0.147 0.147 0.34639999999999993 0.22959999999999997 0.5543333333333333 0.22959999999999997 0.20793333333333333 0 0.4073333333333333 -0.08259999999999999 0.5543333333333333 -0.22959999999999997 0.147 -0.14706666666666665 0.22966666666666663 -0.3464666666666667 0.22966666666666663 -0.5544V1.7828666666666666c1.3798666666666666 0.175 2.6624 0.8036666666666666 3.645933333333333 1.7872 0.9835333333333334 0.9835333333333334 1.6121999999999999 2.2660666666666662 1.7872 3.645933333333333H13.488c-0.20793333333333333 0 -0.4074 0.08259999999999999 -0.5544 0.22959999999999997s-0.22959999999999997 0.3464666666666667 -0.22959999999999997 0.5544c0 0.20793333333333333 0.08259999999999999 0.4073333333333333 0.22959999999999997 0.5543333333333333s0.3464666666666667 0.22966666666666663 0.5544 0.22966666666666663h0.7291333333333332c-0.175 1.3798 -0.8037333333333333 2.6624 -1.7872 3.6458666666666666 -0.9835333333333334 0.9835333333333334 -2.2660666666666662 1.6122666666666667 -3.645933333333333 1.7872666666666666Zm1.6777333333333333 -9.705933333333332 -3.92 1.6620666666666666c-0.18273333333333333 0.07919999999999999 -0.3284666666666667 0.22493333333333332 -0.4076666666666667 0.4076666666666667l-1.6620666666666666 3.92c-0.061733333333333335 0.14379999999999998 -0.07906666666666666 0.3027333333333333 -0.04973333333333333 0.45646666666666663 0.02933333333333333 0.15366666666666667 0.104 0.295 0.21439999999999998 0.4059333333333333 0.14473333333333332 0.14773333333333333 0.34199999999999997 0.23226666666666665 0.5488 0.2352 0.10846666666666667 0.00013333333333333334 0.2156 -0.023999999999999997 0.3136 -0.07053333333333334l3.92 -1.6620666666666666c0.18273333333333333 -0.07919999999999999 0.3284666666666667 -0.22493333333333332 0.4076666666666667 -0.4076666666666667l1.6620666666666666 -3.92c0.060599999999999994 -0.14366666666666666 0.077 -0.3021333333333333 0.04706666666666666 -0.4551333333333333 -0.03 -0.15306666666666666 -0.10486666666666666 -0.29366666666666663 -0.21506666666666666 -0.4039333333333333 -0.11026666666666665 -0.11019999999999999 -0.2508666666666667 -0.18513333333333332 -0.4039333333333333 -0.215 -0.1529333333333333 -0.029933333333333333 -0.31146666666666667 -0.013600000000000001 -0.4551333333333333 0.04699999999999999Zm-1.9521333333333333 3.9984 -1.7875333333333332 0.7839999999999999 0.7839999999999999 -1.7875333333333332 1.7875333333333332 -0.7839999999999999 -0.7839999999999999 1.7875333333333332Z"
    stroke-width="0.6667"></path>
</svg>