<svg width="22" height="27" viewBox="0 0 22 27" fill="none" xmlns="http://www.w3.org/2000/svg">
<path d="M16.9156 1.80589C16.917 1.80507 16.9188 1.80467 16.9204 1.80472L16.9256 1.80662C18.4882 2.92378 19.6649 4.69693 20.3004 6.98677C21.1144 9.94271 20.9055 13.4073 19.6858 16.7356C18.4661 20.0639 16.388 22.8426 13.8558 24.5732L13.8553 24.5745C13.3317 24.9334 12.779 25.2479 12.2039 25.5166C10.5824 26.2682 8.94835 26.5256 7.40778 26.2861L7.40082 26.285L7.39298 26.2843L7.38868 26.282C7.38744 26.2809 7.38623 26.2795 7.38574 26.278C7.3853 26.2764 7.38499 26.2743 7.38545 26.2727C7.38601 26.2711 7.38725 26.2691 7.38865 26.268L7.39267 26.2651C8.1193 25.6916 8.78976 25.0497 9.39441 24.3488L9.3953 24.3484C11.2781 22.1572 13.2518 18.4141 11.9662 13.0844C11.1568 9.72545 11.8134 6.79711 13.9022 4.33541L13.9035 4.33589C14.6565 3.45994 15.5294 2.69596 16.4963 2.06702L16.9156 1.80589ZM7.38844 2.25213C9.5323 0.788808 11.7761 0.223398 13.8411 0.542434L13.8437 0.543384C13.8454 0.543626 13.8468 0.544641 13.848 0.545696C13.8493 0.546789 13.8505 0.548134 13.851 0.549715C13.8514 0.551336 13.8518 0.55335 13.8512 0.554966C13.8509 0.556039 13.8501 0.557114 13.8494 0.557971C13.2137 1.05973 12.621 1.61347 12.0778 2.2136L11.8477 2.47421C9.96497 4.66522 7.98999 8.4084 9.27641 13.7373C10.0822 17.1026 9.42359 20.0318 7.33315 22.494C6.47274 23.4931 5.45598 24.3466 4.32288 25.021C4.32141 25.0219 4.31976 25.0222 4.31804 25.0221C4.3164 25.0221 4.31461 25.022 4.31326 25.0211L4.31415 25.0207C2.75083 23.9034 1.57077 22.1332 0.943713 19.8407L0.944188 19.8394C0.129124 16.8813 0.338595 13.4182 1.55837 10.0897C2.77809 6.76149 4.85726 3.98214 7.38844 2.25213Z" fill="#B22222" stroke="#931010" stroke-width="0.913393"/>
</svg>
