<svg width="260" height="129" viewBox="0 0 260 129" fill="none" xmlns="http://www.w3.org/2000/svg">
<path d="M246.78 108.891H252.365C253.51 108.891 254.494 109.062 255.317 109.405C256.147 109.748 256.785 110.255 257.23 110.927C257.676 111.599 257.899 112.426 257.899 113.406C257.899 114.209 257.762 114.898 257.487 115.474C257.22 116.043 256.839 116.519 256.346 116.903C255.859 117.281 255.286 117.582 254.628 117.809L253.651 118.323H248.796L248.775 115.916H252.386C252.927 115.916 253.376 115.82 253.733 115.628C254.09 115.436 254.357 115.169 254.535 114.826C254.72 114.483 254.813 114.085 254.813 113.632C254.813 113.152 254.724 112.738 254.546 112.388C254.367 112.038 254.096 111.771 253.733 111.586C253.37 111.4 252.914 111.308 252.365 111.308H249.865V123.867H246.78V108.891ZM255.152 123.867L251.738 117.191L254.998 117.171L258.454 123.723V123.867H255.152Z" fill="white"/>
<path d="M239.034 118.529H235.218V116.122H239.034C239.624 116.122 240.104 116.026 240.474 115.834C240.845 115.635 241.115 115.361 241.287 115.011C241.458 114.661 241.544 114.267 241.544 113.828C241.544 113.382 241.458 112.967 241.287 112.583C241.115 112.199 240.845 111.891 240.474 111.658C240.104 111.424 239.624 111.308 239.034 111.308H236.288V123.867H233.202V108.891H239.034C240.207 108.891 241.211 109.103 242.048 109.528C242.891 109.947 243.536 110.526 243.982 111.267C244.428 112.007 244.65 112.854 244.65 113.807C244.65 114.774 244.428 115.611 243.982 116.317C243.536 117.023 242.891 117.569 242.048 117.953C241.211 118.337 240.207 118.529 239.034 118.529Z" fill="white"/>
<path d="M225.302 116.276V118.601H219.491V116.276H225.302Z" fill="white"/>
<path d="M208.948 121.358V116.4C208.948 116.043 208.889 115.738 208.773 115.484C208.656 115.224 208.474 115.021 208.228 114.877C207.988 114.733 207.676 114.661 207.292 114.661C206.962 114.661 206.678 114.72 206.438 114.836C206.198 114.946 206.013 115.107 205.882 115.32C205.752 115.525 205.687 115.769 205.687 116.05H202.724C202.724 115.577 202.834 115.128 203.054 114.703C203.273 114.277 203.592 113.904 204.01 113.581C204.429 113.252 204.926 112.995 205.502 112.81C206.085 112.625 206.736 112.532 207.456 112.532C208.32 112.532 209.088 112.676 209.76 112.964C210.432 113.252 210.96 113.684 211.344 114.26C211.735 114.836 211.931 115.556 211.931 116.42V121.183C211.931 121.793 211.968 122.294 212.044 122.685C212.119 123.069 212.229 123.405 212.373 123.693V123.867H209.38C209.236 123.566 209.126 123.189 209.05 122.736C208.982 122.277 208.948 121.817 208.948 121.358ZM209.338 117.089L209.359 118.766H207.703C207.312 118.766 206.973 118.81 206.685 118.899C206.397 118.988 206.16 119.115 205.975 119.28C205.79 119.438 205.653 119.623 205.563 119.835C205.481 120.048 205.44 120.281 205.44 120.535C205.44 120.788 205.498 121.018 205.615 121.224C205.731 121.423 205.899 121.581 206.119 121.697C206.338 121.807 206.595 121.862 206.89 121.862C207.336 121.862 207.724 121.773 208.053 121.594C208.382 121.416 208.636 121.197 208.814 120.936C208.999 120.675 209.095 120.428 209.102 120.195L209.884 121.45C209.774 121.731 209.623 122.023 209.431 122.325C209.246 122.626 209.009 122.911 208.721 123.178C208.433 123.439 208.087 123.655 207.682 123.826C207.278 123.991 206.798 124.073 206.242 124.073C205.536 124.073 204.895 123.933 204.319 123.651C203.75 123.363 203.297 122.969 202.961 122.469C202.632 121.961 202.467 121.385 202.467 120.74C202.467 120.158 202.577 119.64 202.796 119.187C203.016 118.735 203.338 118.354 203.763 118.046C204.195 117.73 204.734 117.494 205.378 117.336C206.023 117.171 206.77 117.089 207.621 117.089H209.338Z" fill="white"/>
<path d="M194.033 115.114V123.867H191.07V112.738H193.848L194.033 115.114ZM193.601 117.912H192.798C192.798 117.089 192.905 116.348 193.117 115.69C193.33 115.025 193.628 114.459 194.012 113.993C194.396 113.52 194.852 113.16 195.38 112.913C195.915 112.659 196.512 112.532 197.17 112.532C197.691 112.532 198.168 112.608 198.6 112.759C199.032 112.909 199.402 113.149 199.711 113.479C200.026 113.808 200.266 114.243 200.431 114.785C200.602 115.327 200.688 115.988 200.688 116.77V123.867H197.705V116.76C197.705 116.266 197.636 115.882 197.499 115.608C197.362 115.333 197.16 115.141 196.892 115.032C196.632 114.915 196.309 114.857 195.925 114.857C195.528 114.857 195.181 114.936 194.886 115.093C194.598 115.251 194.358 115.471 194.166 115.752C193.981 116.026 193.841 116.348 193.745 116.719C193.649 117.089 193.601 117.487 193.601 117.912Z" fill="white"/>
<path d="M188.684 112.737V123.867H185.711V112.737H188.684ZM185.526 109.837C185.526 109.405 185.677 109.048 185.979 108.767C186.281 108.486 186.685 108.345 187.193 108.345C187.693 108.345 188.094 108.486 188.396 108.767C188.705 109.048 188.859 109.405 188.859 109.837C188.859 110.269 188.705 110.625 188.396 110.906C188.094 111.188 187.693 111.328 187.193 111.328C186.685 111.328 186.281 111.188 185.979 110.906C185.677 110.625 185.526 110.269 185.526 109.837Z" fill="white"/>
<path d="M180.805 115.165V123.867H177.843V112.738H180.63L180.805 115.165ZM184.158 112.666L184.107 115.412C183.963 115.392 183.788 115.375 183.582 115.361C183.383 115.34 183.202 115.33 183.037 115.33C182.619 115.33 182.255 115.385 181.947 115.495C181.645 115.597 181.391 115.752 181.185 115.957C180.987 116.163 180.836 116.413 180.733 116.708C180.637 117.003 180.582 117.339 180.568 117.716L179.972 117.531C179.972 116.811 180.044 116.149 180.188 115.546C180.332 114.936 180.541 114.404 180.815 113.952C181.096 113.499 181.439 113.149 181.844 112.903C182.248 112.656 182.711 112.532 183.232 112.532C183.397 112.532 183.565 112.546 183.736 112.573C183.908 112.594 184.048 112.625 184.158 112.666Z" fill="white"/>
<path d="M172.545 121.44V108.068H175.528V123.867H172.843L172.545 121.44ZM165.51 118.436V118.22C165.51 117.37 165.606 116.598 165.798 115.906C165.99 115.206 166.271 114.606 166.641 114.106C167.011 113.605 167.467 113.218 168.009 112.943C168.551 112.669 169.168 112.532 169.861 112.532C170.512 112.532 171.081 112.669 171.568 112.943C172.062 113.218 172.48 113.609 172.823 114.116C173.173 114.617 173.454 115.21 173.666 115.896C173.879 116.574 174.033 117.318 174.129 118.128V118.601C174.033 119.376 173.879 120.096 173.666 120.761C173.454 121.426 173.173 122.009 172.823 122.509C172.48 123.003 172.062 123.387 171.568 123.662C171.074 123.936 170.498 124.073 169.84 124.073C169.147 124.073 168.53 123.932 167.988 123.651C167.454 123.37 167.001 122.976 166.631 122.468C166.267 121.961 165.99 121.364 165.798 120.679C165.606 119.993 165.51 119.245 165.51 118.436ZM168.472 118.22V118.436C168.472 118.896 168.506 119.324 168.575 119.722C168.65 120.12 168.77 120.473 168.935 120.781C169.106 121.083 169.326 121.32 169.593 121.491C169.867 121.656 170.2 121.738 170.591 121.738C171.098 121.738 171.517 121.625 171.846 121.399C172.175 121.165 172.425 120.847 172.597 120.442C172.775 120.037 172.878 119.571 172.905 119.043V117.696C172.885 117.264 172.823 116.876 172.72 116.533C172.624 116.184 172.48 115.885 172.288 115.638C172.103 115.392 171.87 115.2 171.589 115.062C171.314 114.925 170.989 114.857 170.611 114.857C170.227 114.857 169.898 114.946 169.624 115.124C169.35 115.296 169.127 115.532 168.955 115.834C168.791 116.136 168.667 116.492 168.585 116.904C168.51 117.308 168.472 117.747 168.472 118.22Z" fill="white"/>
<path d="M157.065 115.114V123.867H154.102V112.738H156.88L157.065 115.114ZM156.633 117.912H155.83C155.83 117.089 155.937 116.348 156.149 115.69C156.362 115.025 156.66 114.459 157.044 113.993C157.428 113.52 157.884 113.16 158.412 112.913C158.947 112.659 159.544 112.532 160.202 112.532C160.723 112.532 161.2 112.608 161.632 112.759C162.064 112.909 162.434 113.149 162.743 113.479C163.058 113.808 163.298 114.243 163.463 114.785C163.634 115.327 163.72 115.988 163.72 116.77V123.867H160.737V116.76C160.737 116.266 160.668 115.882 160.531 115.608C160.394 115.333 160.192 115.141 159.924 115.032C159.664 114.915 159.341 114.857 158.957 114.857C158.56 114.857 158.213 114.936 157.918 115.093C157.63 115.251 157.39 115.471 157.198 115.752C157.013 116.026 156.873 116.348 156.777 116.719C156.681 117.089 156.633 117.487 156.633 117.912Z" fill="white"/>
<path d="M141.8 118.416V118.2C141.8 117.384 141.917 116.633 142.15 115.947C142.383 115.255 142.723 114.655 143.168 114.147C143.614 113.64 144.163 113.245 144.814 112.964C145.465 112.676 146.213 112.532 147.056 112.532C147.9 112.532 148.651 112.676 149.309 112.964C149.967 113.245 150.519 113.64 150.965 114.147C151.418 114.655 151.761 115.255 151.994 115.947C152.227 116.633 152.343 117.384 152.343 118.2V118.416C152.343 119.225 152.227 119.976 151.994 120.668C151.761 121.354 151.418 121.954 150.965 122.469C150.519 122.976 149.971 123.37 149.319 123.651C148.668 123.933 147.92 124.073 147.077 124.073C146.233 124.073 145.483 123.933 144.824 123.651C144.173 123.37 143.621 122.976 143.168 122.469C142.723 121.954 142.383 121.354 142.15 120.668C141.917 119.976 141.8 119.225 141.8 118.416ZM144.763 118.2V118.416C144.763 118.882 144.804 119.318 144.886 119.722C144.968 120.127 145.099 120.483 145.277 120.792C145.462 121.094 145.702 121.33 145.997 121.502C146.292 121.673 146.652 121.759 147.077 121.759C147.488 121.759 147.842 121.673 148.136 121.502C148.431 121.33 148.668 121.094 148.846 120.792C149.024 120.483 149.155 120.127 149.237 119.722C149.326 119.318 149.371 118.882 149.371 118.416V118.2C149.371 117.747 149.326 117.322 149.237 116.924C149.155 116.52 149.021 116.163 148.836 115.855C148.658 115.539 148.421 115.292 148.126 115.114C147.831 114.936 147.475 114.847 147.056 114.847C146.638 114.847 146.281 114.936 145.987 115.114C145.699 115.292 145.462 115.539 145.277 115.855C145.099 116.163 144.968 116.52 144.886 116.924C144.804 117.322 144.763 117.747 144.763 118.2Z" fill="white"/>
<path d="M140.689 121.46V123.867H133.15V121.46H140.689ZM134.147 108.891V123.867H131.062V108.891H134.147Z" fill="white"/>
<path d="M116.323 107.307H116.876V110.164H116.668C115.862 110.164 115.125 110.279 114.457 110.51C113.796 110.74 113.224 111.082 112.74 111.535C112.256 111.981 111.884 112.534 111.623 113.194C111.369 113.847 111.242 114.6 111.242 115.452V118.309C111.242 118.885 111.292 119.388 111.392 119.818C111.5 120.241 111.653 120.594 111.853 120.878C112.06 121.155 112.31 121.366 112.602 121.512C112.894 121.65 113.224 121.719 113.593 121.719C113.923 121.719 114.226 121.646 114.503 121.5C114.779 121.354 115.017 121.147 115.217 120.878C115.417 120.609 115.57 120.298 115.678 119.945C115.785 119.584 115.839 119.192 115.839 118.77C115.839 118.324 115.781 117.921 115.666 117.56C115.559 117.192 115.401 116.877 115.194 116.616C114.994 116.354 114.748 116.155 114.457 116.017C114.165 115.871 113.842 115.798 113.489 115.798C112.982 115.798 112.544 115.913 112.176 116.143C111.807 116.374 111.523 116.669 111.323 117.03C111.123 117.391 111.02 117.76 111.012 118.136L110.056 117.341C110.056 116.819 110.159 116.305 110.367 115.798C110.582 115.283 110.885 114.818 111.277 114.404C111.669 113.981 112.149 113.647 112.717 113.401C113.293 113.148 113.95 113.021 114.687 113.021C115.463 113.021 116.146 113.171 116.738 113.471C117.329 113.762 117.824 114.169 118.224 114.692C118.631 115.214 118.934 115.825 119.134 116.523C119.341 117.215 119.445 117.956 119.445 118.747C119.445 119.561 119.303 120.321 119.019 121.028C118.742 121.727 118.35 122.337 117.844 122.86C117.337 123.382 116.73 123.789 116.023 124.081C115.324 124.373 114.545 124.519 113.685 124.519C112.794 124.519 111.98 124.361 111.242 124.046C110.513 123.731 109.875 123.282 109.33 122.698C108.792 122.107 108.374 121.4 108.074 120.579C107.782 119.757 107.637 118.835 107.637 117.814V116.466C107.637 115.068 107.852 113.808 108.282 112.687C108.719 111.566 109.326 110.606 110.102 109.807C110.885 109.001 111.807 108.382 112.867 107.952C113.927 107.522 115.079 107.307 116.323 107.307Z" fill="white"/>
<path d="M105.643 121.489V124.288H94.054V121.915L99.4686 116.178C99.9755 115.594 100.379 115.079 100.678 114.634C100.985 114.189 101.208 113.785 101.346 113.424C101.485 113.056 101.554 112.718 101.554 112.411C101.554 111.911 101.473 111.489 101.312 111.143C101.158 110.798 100.932 110.533 100.632 110.348C100.333 110.164 99.9678 110.072 99.5377 110.072C99.0769 110.072 98.6814 110.191 98.3511 110.429C98.0208 110.667 97.7674 110.997 97.5908 111.42C97.4141 111.835 97.3258 112.307 97.3258 112.837H93.7084C93.7084 111.815 93.9542 110.886 94.4457 110.049C94.9372 109.204 95.6246 108.532 96.5078 108.033C97.3911 107.526 98.4241 107.272 99.6068 107.272C100.82 107.272 101.838 107.464 102.66 107.848C103.482 108.232 104.104 108.782 104.526 109.496C104.948 110.21 105.16 111.07 105.16 112.076C105.16 112.645 105.067 113.194 104.883 113.724C104.707 114.254 104.449 114.78 104.111 115.302C103.773 115.824 103.366 116.358 102.89 116.903C102.414 117.441 101.876 118.009 101.277 118.609L98.7428 121.489H105.643Z" fill="white"/>
<path d="M91.8997 114.404V117.388C91.8997 118.617 91.7615 119.681 91.485 120.579C91.2162 121.478 90.8245 122.219 90.3099 122.803C89.803 123.386 89.1962 123.82 88.4897 124.104C87.7908 124.381 87.0151 124.519 86.1625 124.519C85.479 124.519 84.8415 124.431 84.2502 124.254C83.6588 124.078 83.125 123.805 82.6488 123.436C82.1803 123.06 81.7771 122.591 81.4392 122.031C81.1013 121.47 80.8401 120.802 80.6558 120.026C80.4792 119.251 80.3908 118.371 80.3908 117.388V114.404C80.3908 113.16 80.5252 112.093 80.7941 111.202C81.0705 110.311 81.4661 109.573 81.9807 108.99C82.4952 108.406 83.102 107.976 83.8009 107.699C84.5075 107.423 85.287 107.285 86.1395 107.285C86.823 107.285 87.4567 107.373 88.0404 107.55C88.6317 107.726 89.1655 107.999 89.6417 108.368C90.1179 108.736 90.5211 109.201 90.8513 109.762C91.1893 110.322 91.4466 110.99 91.6232 111.766C91.8075 112.534 91.8997 113.414 91.8997 114.404ZM88.3053 117.837V113.932C88.3053 113.356 88.2708 112.857 88.2017 112.434C88.1402 112.004 88.048 111.639 87.9252 111.34C87.81 111.04 87.664 110.798 87.4874 110.614C87.3107 110.43 87.1072 110.295 86.8768 110.211C86.6541 110.119 86.4083 110.073 86.1395 110.073C85.8016 110.073 85.4982 110.142 85.2294 110.28C84.9606 110.418 84.734 110.637 84.5497 110.937C84.3654 111.228 84.2233 111.624 84.1234 112.123C84.0313 112.615 83.9852 113.218 83.9852 113.932V117.837C83.9852 118.413 84.0159 118.916 84.0774 119.347C84.1465 119.777 84.2386 120.145 84.3538 120.452C84.4767 120.752 84.6265 120.998 84.8031 121.19C84.9798 121.374 85.1833 121.508 85.4137 121.593C85.6441 121.677 85.8937 121.72 86.1625 121.72C86.5005 121.72 86.8 121.654 87.0611 121.524C87.3223 121.386 87.545 121.167 87.7293 120.867C87.9213 120.56 88.0634 120.157 88.1556 119.658C88.2554 119.158 88.3053 118.552 88.3053 117.837Z" fill="white"/>
<path d="M78.4093 121.489V124.288H66.8198V121.915L72.2344 116.178C72.7413 115.594 73.1445 115.079 73.4441 114.634C73.7513 114.189 73.974 113.785 74.1122 113.424C74.2505 113.056 74.3196 112.718 74.3196 112.411C74.3196 111.911 74.239 111.489 74.0777 111.143C73.9241 110.798 73.6975 110.533 73.398 110.348C73.0984 110.164 72.7336 110.072 72.3035 110.072C71.8427 110.072 71.4472 110.191 71.1169 110.429C70.7867 110.667 70.5332 110.997 70.3566 111.42C70.1799 111.835 70.0916 112.307 70.0916 112.837H66.4742C66.4742 111.815 66.72 110.886 67.2115 110.049C67.7031 109.204 68.3905 108.532 69.2737 108.033C70.1569 107.526 71.1899 107.272 72.3727 107.272C73.5861 107.272 74.6038 107.464 75.4256 107.848C76.2473 108.232 76.8694 108.782 77.2919 109.496C77.7143 110.21 77.9255 111.07 77.9255 112.076C77.9255 112.645 77.8333 113.194 77.649 113.724C77.4723 114.254 77.2151 114.78 76.8771 115.302C76.5392 115.824 76.1321 116.358 75.656 116.903C75.1798 117.441 74.6422 118.009 74.0431 118.609L71.5086 121.489H78.4093Z" fill="white"/>
<path d="M72.5914 64.552C76.5528 64.552 79.5941 65.2548 81.7154 66.6605C83.8367 68.0406 84.8973 70.3152 84.8973 73.4843C84.8973 76.679 83.8239 78.992 81.6771 80.4232C79.5302 81.8288 76.4633 82.5317 72.4764 82.5317H70.5979V91.4257H64.6174V65.242C65.9209 64.9865 67.301 64.8075 68.7577 64.7053C70.2145 64.6031 71.4924 64.552 72.5914 64.552ZM72.9747 69.6507C72.5403 69.6507 72.1058 69.6635 71.6713 69.689C71.2624 69.7146 70.9046 69.7401 70.5979 69.7657V77.433H72.4764C74.5465 77.433 76.1055 77.1518 77.1534 76.5896C78.2012 76.0273 78.7252 74.9794 78.7252 73.446C78.7252 72.7048 78.5846 72.0914 78.3035 71.6058C78.0479 71.1202 77.6645 70.7369 77.1534 70.4558C76.6678 70.1491 76.0672 69.9446 75.3516 69.8424C74.636 69.7146 73.8437 69.6507 72.9747 69.6507Z" fill="white"/>
<path d="M107.557 71.2608C106.407 75.1456 105.206 78.7875 103.954 82.1866C102.701 85.5858 101.334 88.8827 99.8517 92.0774C99.315 93.2275 98.7783 94.1987 98.2416 94.9909C97.7049 95.8088 97.1171 96.4733 96.4781 96.9844C95.8392 97.5211 95.1108 97.9045 94.293 98.1345C93.5007 98.3901 92.5678 98.5179 91.4944 98.5179C90.5999 98.5179 89.7693 98.4284 89.0026 98.2495C88.2614 98.0962 87.648 97.9173 87.1624 97.7128L88.1592 93.1508C88.747 93.3553 89.2709 93.4958 89.731 93.5725C90.191 93.6492 90.6766 93.6875 91.1877 93.6875C92.21 93.6875 92.9895 93.4064 93.5262 92.8441C94.0885 92.3074 94.5613 91.5535 94.9447 90.5823C93.6412 88.0265 92.3378 85.1641 91.0344 81.995C89.731 78.8003 88.5042 75.2222 87.3541 71.2608H93.4112C93.6668 72.2576 93.9607 73.3438 94.293 74.5194C94.6508 75.6695 95.0214 76.8451 95.4047 78.0463C95.7881 79.222 96.1714 80.3721 96.5548 81.4966C96.9637 82.6211 97.3471 83.6434 97.7049 84.5635C98.0371 83.6434 98.3822 82.6211 98.74 81.4966C99.0978 80.3721 99.4428 79.222 99.775 78.0463C100.133 76.8451 100.465 75.6695 100.772 74.5194C101.104 73.3438 101.398 72.2576 101.654 71.2608H107.557Z" fill="white"/>
<path d="M110.428 66.2388L116.14 65.3187V71.2608H123.002V76.0145H116.14V83.1067C116.14 84.3079 116.344 85.2663 116.753 85.9819C117.188 86.6975 118.044 87.0553 119.322 87.0553C119.935 87.0553 120.561 87.0042 121.2 86.902C121.865 86.7742 122.465 86.6081 123.002 86.4036L123.807 90.8506C123.117 91.1318 122.35 91.3746 121.507 91.579C120.663 91.7835 119.628 91.8857 118.402 91.8857C116.843 91.8857 115.552 91.6812 114.53 91.2723C113.507 90.8379 112.69 90.25 112.076 89.5089C111.463 88.7421 111.028 87.8221 110.773 86.7487C110.543 85.6752 110.428 84.4868 110.428 83.1834V66.2388Z" fill="white"/>
<path d="M127.654 91.4257V62.5968L133.366 61.6768V71.3375C133.749 71.2097 134.235 71.0947 134.822 70.9925C135.436 70.8647 136.024 70.8008 136.586 70.8008C138.222 70.8008 139.576 71.0308 140.65 71.4908C141.749 71.9253 142.617 72.5515 143.256 73.3693C143.921 74.1871 144.381 75.1583 144.637 76.2829C144.918 77.4074 145.058 78.6597 145.058 80.0398V91.4257H139.346V80.7299C139.346 78.8897 139.103 77.5863 138.618 76.8196C138.158 76.0528 137.289 75.6695 136.011 75.6695C135.5 75.6695 135.014 75.7206 134.554 75.8228C134.12 75.8995 133.723 75.989 133.366 76.0912V91.4257H127.654Z" fill="white"/>
<path d="M173.515 71.9509C174.486 71.6697 175.738 71.4142 177.272 71.1841C178.805 70.9286 180.415 70.8008 182.102 70.8008C183.814 70.8008 185.233 71.0308 186.357 71.4908C187.507 71.9253 188.415 72.5515 189.079 73.3693C189.744 74.1871 190.217 75.1583 190.498 76.2829C190.779 77.4074 190.919 78.6597 190.919 80.0398V91.4257H185.207V80.7299C185.207 78.8897 184.965 77.5863 184.479 76.8196C183.993 76.0528 183.086 75.6695 181.757 75.6695C181.348 75.6695 180.914 75.695 180.454 75.7462C179.994 75.7717 179.585 75.81 179.227 75.8612V91.4257H173.515V71.9509Z" fill="white"/>
<path d="M212.928 86.8637C213.772 86.8637 214.462 86.7998 214.998 86.672C215.561 86.5186 216.008 86.327 216.34 86.0969C216.672 85.8414 216.902 85.5475 217.03 85.2152C217.158 84.883 217.222 84.5124 217.222 84.1035C217.222 83.2345 216.813 82.5189 215.995 81.9566C215.177 81.3688 213.772 80.7426 211.778 80.0781C210.909 79.7715 210.04 79.4264 209.171 79.0431C208.302 78.6342 207.523 78.1358 206.833 77.548C206.143 76.9346 205.581 76.2062 205.146 75.3628C204.712 74.4938 204.494 73.446 204.494 72.2192C204.494 70.9925 204.724 69.8935 205.184 68.9223C205.644 67.9256 206.296 67.0822 207.14 66.3921C207.983 65.7021 209.005 65.1781 210.206 64.8203C211.408 64.437 212.762 64.2453 214.27 64.2453C216.059 64.2453 217.605 64.437 218.909 64.8203C220.212 65.2037 221.286 65.6254 222.129 66.0854L220.404 70.8008C219.663 70.4174 218.832 70.0852 217.912 69.804C217.018 69.4973 215.931 69.344 214.653 69.344C213.222 69.344 212.187 69.5485 211.548 69.9574C210.935 70.3407 210.628 70.9413 210.628 71.7592C210.628 72.2448 210.743 72.6537 210.973 72.9859C211.203 73.3182 211.523 73.6249 211.932 73.906C212.366 74.1616 212.852 74.4044 213.388 74.6344C213.951 74.8389 214.564 75.0561 215.228 75.2861C216.609 75.7973 217.81 76.3084 218.832 76.8196C219.854 77.3052 220.698 77.8802 221.362 78.5447C222.052 79.2092 222.563 79.9887 222.896 80.8832C223.228 81.7777 223.394 82.8639 223.394 84.1418C223.394 86.6209 222.525 88.5505 220.787 89.9306C219.049 91.2851 216.43 91.9624 212.928 91.9624C211.753 91.9624 210.692 91.8857 209.746 91.7324C208.801 91.6046 207.957 91.4385 207.216 91.234C206.501 91.0295 205.874 90.8123 205.338 90.5823C204.827 90.3523 204.392 90.135 204.034 89.9306L205.721 85.1769C206.513 85.6113 207.485 86.0075 208.635 86.3653C209.81 86.6975 211.242 86.8637 212.928 86.8637Z" fill="white"/>
<path d="M244.825 90.7356C243.854 91.0168 242.602 91.2723 241.068 91.5023C239.535 91.7579 237.925 91.8857 236.238 91.8857C234.526 91.8857 233.094 91.6557 231.944 91.1957C230.82 90.7356 229.925 90.0967 229.261 89.2788C228.596 88.4354 228.123 87.4387 227.842 86.2886C227.561 85.1385 227.421 83.8734 227.421 82.4933V71.2608H233.133V81.8033C233.133 83.6434 233.375 84.9724 233.861 85.7902C234.347 86.6081 235.254 87.017 236.583 87.017C236.992 87.017 237.426 87.0042 237.886 86.9787C238.346 86.9276 238.755 86.8764 239.113 86.8253V71.2608H244.825V90.7356Z" fill="white"/>
<path d="M258.238 91.809C256.577 91.7835 255.222 91.6046 254.174 91.2723C253.152 90.9401 252.334 90.48 251.721 89.8922C251.133 89.2788 250.724 88.5505 250.494 87.7071C250.289 86.8381 250.187 85.8669 250.187 84.7935V62.5968L255.899 61.6768V83.6434C255.899 84.1546 255.938 84.6146 256.014 85.0235C256.091 85.4324 256.232 85.7775 256.436 86.0586C256.666 86.3397 256.986 86.5698 257.394 86.7487C257.803 86.9276 258.353 87.0426 259.043 87.0937L258.238 91.809Z" fill="white"/>
<path d="M25.5074 100.159C19.3078 94.0588 25.0099 78.5068 25.1852 77.2873C25.1876 77.2708 26.1169 75.1858 26.1516 75.0324C26.3924 73.9691 27.7207 71.546 27.7126 71.1742C29.9384 66.5154 31.4258 59.4166 40.8888 47.7078C51.968 35.0794 65.3705 32.2938 71.2296 31.0761C72.3576 30.8416 76.0376 30.4501 76.5361 30.2728C91.6532 27.9343 110.099 38.8982 110.59 40.148C94.4808 32.075 75.6633 32.0144 74.7905 33.7559C81.3012 46.6193 87.6803 53.189 103.035 54.2664C111.02 54.8267 119.336 50.4429 126.379 55.2726C122.153 40.1481 101.176 19.5762 65.8718 29.4735C58.415 30.7791 51.3112 34.7365 47.4754 37.608C47.1909 37.8493 46.7255 38.1966 46.1368 38.6359C44.0161 40.2185 40.2953 42.9952 37.6667 46.311C26.5469 59.8042 23.9655 72.3469 23.9655 72.3469C23.9655 72.3469 13.5883 90.4949 21.9638 102.414C33.7768 119.225 46.1242 125.608 46.1242 125.608C46.1242 125.608 48.7002 124.499 49.6676 121.742C41.6142 118.199 34.8494 110.467 25.5074 100.159Z" fill="white"/>
<path fill-rule="evenodd" clip-rule="evenodd" d="M71.1406 0C66.7978 9.39796 43.114 5.62002 49.3059 33.1095C56.7829 28.9358 63.1349 16.8908 63.1349 16.8908C63.1349 16.8908 59.7196 27.9503 51.0681 36.2665C55.2259 35.9069 79.5391 31.0522 71.1406 0Z" fill="white"/>
<path fill-rule="evenodd" clip-rule="evenodd" d="M67.9313 51.4395C54.5567 56.3189 57.0942 76.6863 32.8022 65.7368C38.2816 58.4922 51.3919 55.3243 51.3919 55.3243C51.3919 55.3243 41.858 54.0649 30.2659 63.8829C31.3679 60.112 40.3997 34.6925 67.9313 51.4395Z" fill="white"/>
<path fill-rule="evenodd" clip-rule="evenodd" d="M1.99149 43.4443C9.2941 55.6657 -5.383 71.857 20.3747 78.6787C20.1332 69.7523 12.3775 56.8896 12.3775 56.8896C12.3775 56.8896 20.403 64.0802 23.3756 76.8545C24.8984 73.2331 33.9194 47.8097 1.99149 43.4443Z" fill="white"/>
<path d="M30.9279 119.307C27.6457 120.161 25.3541 117.916 24.5005 114.634C23.6468 111.352 24.5543 108.275 27.8365 107.422C31.1187 106.568 33.6224 108.757 34.4761 112.04C35.3298 115.322 34.2101 118.454 30.9279 119.307Z" fill="white"/>
<path d="M30.7156 118.492C32.1127 118.128 33.0069 117.303 33.4844 116.239C33.9723 115.152 34.0507 113.752 33.6606 112.252C33.2705 110.752 32.5198 109.567 31.5639 108.855C30.6286 108.159 29.4455 107.874 28.0484 108.237C26.6567 108.599 25.8233 109.404 25.3964 110.439C24.9555 111.508 24.9203 112.901 25.3161 114.422L24.5006 114.634L24.4258 114.327C23.7176 111.213 24.6266 108.343 27.6843 107.463L27.8363 107.422C31.1185 106.568 33.6225 108.758 34.4761 112.04L34.5505 112.347C35.2578 115.515 34.1073 118.48 30.9277 119.307L30.7747 119.345C27.5745 120.091 25.3409 117.865 24.5006 114.634L25.3161 114.422C25.7119 115.944 26.4211 117.143 27.3271 117.862C28.2042 118.558 29.3238 118.854 30.7156 118.492Z" fill="white"/>
<path d="M23.2777 99.768C26.5216 100.757 27.3005 103.869 26.3113 107.113C25.3221 110.357 22.9393 112.504 19.6954 111.515C16.4515 110.526 15.4628 107.35 16.452 104.106C17.4412 100.862 20.0338 98.7788 23.2777 99.768Z" fill="white"/>
<path d="M23.032 100.574C21.6512 100.153 20.4572 100.389 19.4939 101.046C18.5093 101.717 17.7101 102.87 17.258 104.352C16.806 105.834 16.826 107.237 17.2685 108.344C17.7014 109.426 18.5605 110.288 19.9413 110.709C21.3168 111.129 22.4479 110.879 23.3532 110.22C24.2882 109.539 25.0467 108.371 25.5053 106.867L26.3113 107.113L26.2144 107.414C25.189 110.438 22.913 112.409 19.8469 111.559L19.6956 111.515C16.4516 110.526 15.4628 107.35 16.452 104.106L16.5493 103.806C17.6038 100.735 20.1353 98.8099 23.2778 99.7682L23.428 99.8157C26.5455 100.854 27.285 103.92 26.3113 107.113L25.5053 106.867C25.9639 105.363 25.9866 103.97 25.5904 102.884C25.2069 101.832 24.4075 100.994 23.032 100.574Z" fill="white"/>
<path d="M9.32055 93.3536C10.7111 90.2604 13.8963 89.8803 16.9895 91.2709C20.0827 92.6615 21.9126 95.2961 20.522 98.3893C19.1314 101.483 15.8563 102.063 12.7631 100.672C9.66989 99.2815 7.92997 96.4468 9.32055 93.3536Z" fill="white"/>
<path d="M10.0893 93.699C9.4974 95.0157 9.58079 96.2298 10.1109 97.2684C10.6527 98.3298 11.6951 99.268 13.1085 99.9035C14.522 100.539 15.9159 100.696 17.0694 100.397C18.1981 100.104 19.1616 99.3603 19.7535 98.0437C20.3431 96.7321 20.2381 95.5786 19.6987 94.5974C19.1414 93.584 18.0778 92.6841 16.6439 92.0394L16.9894 91.2709L17.2756 91.405C20.1467 92.8037 21.8147 95.3102 20.5848 98.2446L20.522 98.3892C19.1315 101.482 15.8562 102.063 12.763 100.672L12.477 100.538C9.56412 99.1041 7.97367 96.35 9.32078 93.3535L9.3869 93.2105C10.8105 90.2489 13.9446 89.9021 16.9894 91.2709L16.6439 92.0394C15.2099 91.3948 13.8309 91.1965 12.703 91.4524C11.6111 91.7001 10.679 92.3875 10.0893 93.699Z" fill="white"/>
<path d="M26.5658 104.049C25.4491 100.847 27.5009 98.3814 30.7032 97.2647C33.9055 96.148 37.0456 96.8034 38.1623 100.006C39.279 103.208 37.2994 105.881 34.0971 106.997C30.8948 108.114 27.6825 107.252 26.5658 104.049Z" fill="white"/>
<path d="M27.3616 103.772C27.8369 105.135 28.7322 105.959 29.8311 106.349C30.9543 106.747 32.3563 106.712 33.8195 106.202C35.2829 105.692 36.4031 104.847 37.0351 103.837C37.6534 102.848 37.8419 101.646 37.3666 100.283C36.8931 98.9252 36.0238 98.1596 34.9575 97.8179C33.8561 97.4651 32.4651 97.5428 30.9806 98.0605L30.7031 97.2648L31.0031 97.1655C34.0498 96.2074 36.9843 96.8809 38.1084 99.8574L38.1622 100.006C39.2789 103.208 37.2993 105.881 34.097 106.998L33.7969 107.097C30.6961 108.058 27.6477 107.151 26.5659 104.049L26.5156 103.9C25.5134 100.771 27.551 98.3641 30.7031 97.2648L30.9806 98.0605C29.496 98.5782 28.3583 99.3822 27.7151 100.343C27.0925 101.274 26.8881 102.414 27.3616 103.772Z" fill="white"/>
<path d="M23.3242 99.1449C20.3635 97.4909 20.2615 94.2847 21.9155 91.324C23.5695 88.3633 26.3532 86.7692 29.3139 88.4232C32.2746 90.0772 32.5681 93.3904 30.9141 96.3511C29.2601 99.3118 26.2849 100.799 23.3242 99.1449Z" fill="white"/>
<path d="M23.7351 98.409C24.9954 99.1131 26.2122 99.1355 27.2929 98.6976C28.3973 98.25 29.4226 97.2931 30.1784 95.9402C30.9342 94.5872 31.2118 93.2123 31.0138 92.0371C30.8201 90.8873 30.1631 89.8628 28.9028 89.1588C27.6474 88.4575 26.4891 88.4618 25.4648 88.914C24.4068 89.3812 23.4179 90.3626 22.6512 91.7351L21.9155 91.3242L22.074 91.0507C23.7168 88.3119 26.3587 86.8679 29.1752 88.3481L29.3138 88.4231C32.2745 90.0772 32.568 93.3905 30.914 96.3512L30.7552 96.6244C29.0742 99.4018 26.1923 100.747 23.3242 99.1447L23.1874 99.0664C20.3607 97.3909 20.2874 94.2386 21.9155 91.3242L22.6512 91.7351C21.8844 93.1077 21.567 94.4642 21.724 95.6101C21.876 96.7194 22.4798 97.7077 23.7351 98.409Z" fill="white"/>
<path d="M20.4382 91.6183C17.1766 92.5478 14.8337 90.3568 13.9043 87.0952C12.9748 83.8337 13.8108 80.7367 17.0723 79.8073C20.3338 78.8778 22.8877 81.0087 23.8171 84.2703C24.7466 87.5318 23.6997 90.6889 20.4382 91.6183Z" fill="white"/>
<path d="M20.207 90.8078C21.5954 90.4122 22.4702 89.5661 22.9229 88.4916C23.3855 87.3934 23.4315 85.9917 23.0068 84.5013C22.5821 83.0109 21.8041 81.8437 20.832 81.1543C19.8808 80.4798 18.6914 80.222 17.3031 80.6177C15.9202 81.0118 15.1056 81.8353 14.7028 82.88C14.2868 83.9592 14.2839 85.3523 14.7147 86.8644L13.9044 87.0953L13.8225 86.7901C13.0424 83.693 13.8846 80.8025 16.9212 79.8525L17.0722 79.8073C20.3337 78.8778 22.8877 81.0089 23.8172 84.2704L23.8986 84.5758C24.6791 87.727 23.5976 90.7178 20.438 91.6182L20.286 91.6598C17.1038 92.4792 14.8193 90.3058 13.9044 87.0953L14.7147 86.8644C15.1457 88.3764 15.8825 89.5588 16.8049 90.2565C17.6979 90.9319 18.8241 91.2019 20.207 90.8078Z" fill="white"/>
<path d="M156.627 87.9366C155.803 88.8939 154.83 89.7114 153.744 90.3573C153.673 90.4 153.59 90.4209 153.507 90.4175C153.423 90.4142 153.343 90.3866 153.275 90.3382C151.74 89.2413 150.604 87.5181 150.005 85.3271C149.226 82.5019 149.431 79.2172 150.582 76.0762C151.733 72.9352 153.701 70.2948 156.119 68.6425C158.168 67.244 160.344 66.6837 162.373 66.9973C162.456 67.0095 162.534 67.0457 162.596 67.1014C162.659 67.157 162.704 67.2297 162.725 67.3105C162.747 67.3913 162.745 67.4767 162.719 67.5562C162.692 67.6357 162.644 67.7059 162.578 67.758C161.929 68.2705 161.33 68.8439 160.79 69.4703C159.116 71.4179 157.361 74.7361 158.508 79.4875C159.28 82.7132 158.649 85.5553 156.627 87.9366ZM165.399 68.2362C165.331 68.1879 165.251 68.1604 165.168 68.1569C165.085 68.1534 165.002 68.1742 164.931 68.2166C163.844 68.862 162.87 69.6797 162.047 70.6378C160.025 73.019 159.394 75.8612 160.17 79.0826C161.316 83.8345 159.562 87.1523 157.888 89.0999C157.348 89.7263 156.749 90.2996 156.1 90.8121C156.032 90.8641 155.982 90.935 155.954 91.0158C155.927 91.0966 155.925 91.1837 155.947 91.2659C155.97 91.3481 156.016 91.4217 156.081 91.4774C156.145 91.5332 156.225 91.5684 156.31 91.5788C157.824 91.8142 159.415 91.559 160.977 90.835C161.529 90.5773 162.058 90.2748 162.56 89.9306C164.979 88.2778 166.946 85.6379 168.097 82.4969C169.248 79.3559 169.452 76.0692 168.674 73.246C168.067 71.0586 166.934 69.3331 165.399 68.2362Z" fill="white"/>
<path d="M164.931 68.2166C165.002 68.1741 165.085 68.1534 165.168 68.1569C165.251 68.1604 165.331 68.1881 165.399 68.2363C166.933 69.3332 168.067 71.0589 168.674 73.2463L168.745 73.5122C169.438 76.2746 169.212 79.4541 168.097 82.4969C166.946 85.6379 164.979 88.2778 162.56 89.9305C162.058 90.2748 161.528 90.5773 160.977 90.835L160.684 90.9655C159.217 91.5891 157.729 91.7996 156.31 91.579C156.246 91.5712 156.185 91.5493 156.132 91.5154L156.081 91.4774C156.016 91.4217 155.97 91.348 155.947 91.2658C155.925 91.1836 155.927 91.0966 155.954 91.0158C155.981 90.9351 156.032 90.8639 156.1 90.8119C156.668 90.3635 157.198 89.8686 157.683 89.3323L157.888 89.1001C159.562 87.1525 161.316 83.8346 160.17 79.0827C159.418 75.962 159.987 73.197 161.861 70.8623L162.047 70.6379C162.87 69.6798 163.844 68.8619 164.931 68.2166ZM165.126 69.0847C164.214 69.6585 163.392 70.3655 162.689 71.183L162.689 71.1832C160.911 73.2775 160.309 75.7471 160.925 78.6072L160.989 78.8852C162.215 83.9668 160.328 87.5539 158.527 89.6491L158.526 89.6506C158.171 90.0628 157.791 90.4531 157.39 90.8202C158.437 90.8246 159.527 90.5779 160.621 90.0707C161.131 89.8326 161.62 89.5537 162.084 89.2357L162.085 89.2349C164.338 87.6947 166.206 85.2073 167.305 82.207C168.405 79.2068 168.586 76.1006 167.862 73.4697C167.327 71.5427 166.369 70.056 165.126 69.0847ZM156.119 68.6425C158.168 67.2441 160.344 66.6836 162.373 66.9972C162.456 67.0094 162.533 67.046 162.596 67.1017C162.658 67.1573 162.703 67.23 162.725 67.3107L162.737 67.3718C162.744 67.4337 162.738 67.4968 162.718 67.5565L162.695 67.6141C162.667 67.6698 162.627 67.7189 162.578 67.758L162.337 67.9533C161.78 68.4149 161.262 68.9223 160.789 69.4703C159.116 71.418 157.361 74.7364 158.508 79.4878L158.576 79.7889C159.239 82.8905 158.585 85.6298 156.627 87.9367C155.803 88.8939 154.83 89.7116 153.744 90.3575C153.691 90.3895 153.631 90.4092 153.569 90.4156L153.507 90.4177C153.444 90.4151 153.383 90.3988 153.328 90.3704L153.275 90.3383C151.74 89.2414 150.604 87.5182 150.005 85.3271C149.251 82.5902 149.42 79.4221 150.477 76.3711L150.582 76.0762C151.733 72.9352 153.701 70.2948 156.119 68.6425ZM161.281 67.7559C159.769 67.7524 158.162 68.2677 156.594 69.338L156.594 69.3382C154.341 70.8779 152.473 73.3659 151.373 76.3661C150.274 79.3664 150.092 82.4707 150.817 85.1033L150.817 85.105C151.345 87.0327 152.303 88.5178 153.547 89.4894C154.46 88.9141 155.284 88.2059 155.988 87.3869C157.821 85.2261 158.402 82.6655 157.689 79.6839C156.462 74.6034 158.35 71.0162 160.15 68.9213L160.151 68.9199C160.505 68.51 160.882 68.1212 161.281 67.7559Z" fill="white"/>
</svg>
